<svg xmlns="http://www.w3.org/2000/svg" xmlns:xlink="http://www.w3.org/1999/xlink" width="30" height="30" viewBox="0 0 293.157 299.267">
  <defs>
    <style>
      .cls-1 {
        stroke: rgba(0,0,0,0);
        stroke-miterlimit: 10;
        fill: url(#linear-gradient);
      }
    </style>
    <linearGradient id="linear-gradient" x1="0.5" x2="0.711" y2="0.849" gradientUnits="objectBoundingBox">
      <stop offset="0" stop-color="#8651e5"/>
      <stop offset="0.468" stop-color="#804cdd"/>
      <stop offset="1" stop-color="#5e1fd1"/>
    </linearGradient>
  </defs>
  <path id="패스_1" data-name="패스 1" class="cls-1" d="M167.3,30.512q-34.056,0-62.7-10.618a146.521,146.521,0,0,1-49.682-30.25A137.611,137.611,0,0,1,22.262-56.832q-11.619-26.844-11.619-59.3t11.619-59.3A136.31,136.31,0,0,1,55.116-221.9a147.926,147.926,0,0,1,50.283-30.25q29.048-10.618,63.906-10.618,41.669,0,74.323,14.023t53.889,40.066l-60.5,53.288q-13.222-15.225-28.647-23.038a74.719,74.719,0,0,0-34.257-7.813,78.826,78.826,0,0,0-28.247,4.808,57.547,57.547,0,0,0-21.435,14.023,63.911,63.911,0,0,0-13.622,22.036Q106-132.557,106-116.13a82.133,82.133,0,0,0,4.808,28.647,63.556,63.556,0,0,0,13.622,22.237,60.451,60.451,0,0,0,21.035,14.223,71.781,71.781,0,0,0,27.445,5.008,92.693,92.693,0,0,0,31.252-5.409q15.225-5.409,32.454-18.631l22.436,27.535L289.5-5.147q-25.642,17.228-58.5,26.444A235.472,235.472,0,0,1,167.3,30.512Zm40.066-47.679V-123.742H289.5v118.6Z" transform="matrix(1, -0.017, 0.017, 1, -5.547, 268.436)"/>
</svg>
